# xmcd
#
# Track frame offsets:
#	150
#	19258
#	39111
#	57340
#	76388
#	91133
#	112246
#	129791
#	150962
#	161350
#
# Disc length: 2417 seconds
#
# Revision: 1
# Processed by: cddbd v1.5.2PL0 Copyright (c) Steve Scherf et al.
# Submitted via: audiograbber 1.83.01
#
DISCID=68096f0a
DTITLE=John Mayall - The last of the british blues
DYEAR=1900
DGENRE=
TTITLE0=Tuscon Lady
TTITLE1=Parchman Farm
TTITLE2=There's Only Now
TTITLE3=the Teaser
TTITLE4=Hideaway
TTITLE5=The Bear
TTITLE6=Lonely Birthday
TTITLE7=Lowdown Blues
TTITLE8=Another Man
TTITLE9=It Must Be Three
EXTD=
EXTT0=
EXTT1=
EXTT2=
EXTT3=
EXTT4=
EXTT5=
EXTT6=
EXTT7=
EXTT8=
EXTT9=
PLAYORDER=
